# xmcd
#
# Track frame offsets: 
#        150
#        18162
#        35424
#        49434
#        69252
#        85350
#        105470
#        124935
#        142695
#        161234
#        180114
#        199696
#        214804
#        233949
#        252636
#        268313
#        288876
#        307976
#        322591
#        342415
#
# Disc length: 4805 seconds
#
# Revision: 2
# Processed by: cddbd v1.5.2PL0 Copyright (c) Steve Scherf et al.
# Submitted via: ExactAudioCopy v1.2
#
DISCID=1b12c314
DTITLE=Charlie Landsborough - The Ultimate Collection, CD1
DYEAR=2005
DGENRE=Country
TTITLE0=What Colour Is The Wind
TTITLE1=I Will Love You All My Life
TTITLE2=Further Down The Road
TTITLE3=A Million Ways To Fall
TTITLE4=When I'm Dead And Gone
TTITLE5=Long And Heavy Chain
TTITLE6=Counterfeit Man
TTITLE7=I Dreamed I Was In Heaven
TTITLE8=The Green Hills Are Rolling Still
TTITLE9=My Forever Friend
TTITLE10=Heaven Knows
TTITLE11=Look What You've Done
TTITLE12=Love Love
TTITLE13=Leave Me
TTITLE14=Who Can Blame Him
TTITLE15=Crazy
TTITLE16=Always On My Mind
TTITLE17=Angels With One Wing
TTITLE18=It's Raining Outside
TTITLE19=Shine Your Light
EXTD=
EXTT0=
EXTT1=
EXTT2=
EXTT3=
EXTT4=
EXTT5=
EXTT6=
EXTT7=
EXTT8=
EXTT9=
EXTT10=
EXTT11=
EXTT12=
EXTT13=
EXTT14=
EXTT15=
EXTT16=
EXTT17=
EXTT18=
EXTT19=
PLAYORDER=
